<svg version="1.1" xmlns="http://www.w3.org/2000/svg" viewBox="0 0 640 360" enable-background="new 0 0 640 360">
	<rect fill="#1565C0" width="640" height="360" />
	<path fill-rule="evenodd" clip-rule="evenodd" fill="#FFFFFF" d="M297.374,246.786v-43.383c0-5.551,3.539-8.372,9.172-8.372h26.751c5.633,0,9.172,2.821,9.172,8.372v43.383c0,4.765-3.537,7.992-6.497,7.992h-32.101C300.911,254.778,297.374,251.551,297.374,246.786L297.374,246.786z M236.993,206.829v40.719c0,3.647,0.841,6.304,1.849,8.814c0.904,2.251,2.817,5.038,4.355,6.699c2.946,3.181,9.204,6.939,15.197,6.939h123.054c11.333,0,21.401-10.544,21.401-22.452v-40.719 	c0-1.34-19.073-19.564-20.35-20.835l-57.133-56.892c-1.569-1.562-3.78-4.122-5.446-5.233c-2.206,1.471-68.837,68.357-77.864,77.347C241.061,202.207,236.993,205.581,236.993,206.829L236.993,206.829z" />
	<path fill-rule="evenodd" clip-rule="evenodd" fill="#FFFFFF" d="M365.016,133.383c-1.721-1.148-29.716-29.401-32.579-32.252c-7.956-7.922-11.448-13.532-20.063-4.947l-84.075,83.721c-2.07,2.055-4.299,3.927-4.299,7.896c0,5.026,6.727,11.474,14.619,3.522l75.665-75.351c1.579-1.572,3.984-4.321,5.637-5.423c2.21,1.474,80.078,79.54,81.302,80.773c9.068,9.136,16.793,0.281,14.304-6.248c-0.994-2.607-2.738-3.93-4.558-5.741c-6.909-6.879-13.527-13.49-20.445-20.359c-3.088-3.066-2.589-1.605-2.58-7.326l0.005-50.618C388.014,90.146,382.814,90,374.57,90c-4.365,0-7.143,1.326-8.681,4.294c-1.495,2.884-0.873,8.361-0.873,12.45C365.016,115.624,365.016,124.503,365.016,133.383L365.016,133.383z" />
</svg>

