<?xml version="1.0" encoding="utf-8"?>
<!-- Generator: Adobe Illustrator 19.0.0, SVG Export Plug-In . SVG Version: 6.00 Build 0)  -->
<svg version="1.1" id="Layer_1" xmlns="http://www.w3.org/2000/svg" xmlns:xlink="http://www.w3.org/1999/xlink" x="0px" y="0px"
	 viewBox="0 0 120 120" enable-background="new 0 0 120 120" xml:space="preserve">
<g id="XMLID_1_">
	<path id="XMLID_20_" fill-rule="evenodd" clip-rule="evenodd" fill="#00CFC4" d="M120,90c0,16.5-13.5,30-30,30H30
		c-16.5,0-30-13.5-30-30V30C0,13.5,13.5,0,30,0h60c16.5,0,30,13.5,30,30V90z"/>
</g>
<g id="XMLID_3_">
	<path id="XMLID_8_" fill="none" d="M61.9,54c-3.3-1.1-6.8,0.7-7.9,4c-1.1,3.3,0.7,6.8,4,7.9c3.3,1.1,6.8-0.7,7.9-4
		C67,58.6,65.2,55.1,61.9,54z M59,63c-1.6-0.5-2.5-2.3-2-4c0.5-1.6,2.3-2.5,3.9-2c1.6,0.5,2.5,2.3,2,4C62.4,62.6,60.7,63.5,59,63z"
		/>
	<circle id="XMLID_9_" fill="#FFFFFF" cx="60" cy="60" r="3.1"/>
	<path id="XMLID_16_" fill="#FFFFFF" d="M71.9,63.9c1.8-5.5-0.4-11.4-5.1-14.4c3.4-3.1,7.3-10.1,10.1-18.8c2.1-6.4,3.2-12.5,3.2-17
		c0-4.2-1.4-5.2-3.2-5.8c-1.8-0.6-3.6-0.6-6,2.8c-2.6,3.7-5.3,9.2-7.4,15.7C60.7,35,59.7,43,60.6,47.5c-5.5-0.3-10.8,3.1-12.5,8.7
		s0.4,11.4,5.1,14.4c-3.4,3.1-7.3,10.1-10.1,18.8c-2.1,6.4-3.2,12.5-3.2,17c0,4.2,1.4,5.2,3.2,5.8c1.8,0.6,3.6,0.6,6-2.8
		c2.6-3.7,5.3-9.2,7.4-15.7c2.8-8.7,3.8-16.7,2.9-21.2C64.9,72.8,70.1,69.4,71.9,63.9z M58.1,66c-3.3-1.1-5.1-4.6-4-7.9
		c1.1-3.3,4.6-5.1,7.9-4c3.3,1.1,5.1,4.6,4,7.9C64.9,65.2,61.4,67,58.1,66z"/>
</g>
</svg>
