<svg version="1.1" xmlns="http://www.w3.org/2000/svg" viewBox="0 0 640 360" enable-background="new 0 0 640 360">
	<rect fill="#03A9F4" width="640" height="360" />
	<path fill="none" d="M323.319,169.773c-5.642-1.835-11.701,1.256-13.535,6.904c-1.833,5.648,1.254,11.715,6.896,13.55c5.642,1.835,11.702-1.256,13.535-6.904C332.048,177.675,328.961,171.608,323.319,169.773z M318.34,185.113c-2.821-0.918-4.365-3.951-3.448-6.775c0.917-2.824,3.946-4.37,6.767-3.452c2.821,0.918,4.365,3.951,3.448,6.775S321.161,186.031,318.34,185.113z" />
	<path fill="#FFFFFF" d="M321.66,174.887c-2.821-0.918-5.851,0.628-6.767,3.452c-0.917,2.824,0.627,5.857,3.448,6.775c2.821,0.918,5.851-0.628,6.767-3.452S324.48,175.804,321.66,174.887z" />
	<path fill="#FFFFFF" d="M340.431,186.646c3.067-9.45-0.756-19.482-8.692-24.659c5.762-5.275,12.455-17.385,17.288-32.274c3.583-11.04,5.442-21.446,5.526-29.211c0.078-7.262-2.442-8.99-5.509-9.988c-3.068-0.998-6.121-1.082-10.322,4.84c-4.491,6.331-9.097,15.844-12.679,26.883c-4.832,14.889-6.527,28.625-4.963,36.283c-9.46-0.482-18.443,5.384-21.51,14.834c-3.067,9.45,0.756,19.482,8.692,24.659c-5.762,5.275-12.455,17.385-17.288,32.274c-3.583,11.04-5.442,21.446-5.526,29.211c-0.078,7.262,2.442,8.99,5.509,9.988c3.068,0.998,6.121,1.082,10.322-4.84c4.491-6.331,9.097-15.844,12.679-26.883c4.832-14.889,6.527-28.625,4.963-36.283C328.381,201.962,337.364,196.096,340.431,186.646z M316.681,190.227c-5.642-1.835-8.729-7.902-6.896-13.55c1.833-5.648,7.893-8.739,13.535-6.904c5.642,1.835,8.729,7.902,6.896,13.55C328.382,188.971,322.323,192.062,316.681,190.227z" />
</svg>
