<svg version="1.1" xmlns="http://www.w3.org/2000/svg" viewBox="0 0 640 360" enable-background="new 0 0 640 360"> <rect x="320" fill-rule="evenodd" clip-rule="evenodd" fill="#0052A5" width="320" height="360"/> <rect fill-rule="evenodd" clip-rule="evenodd" fill="#00A552" width="320" height="360"/> <path fill-rule="evenodd" clip-rule="evenodd" fill="#FFCC00" d="M154.482,282.237c0-4.561,0.925-9.519,4.386-11.276l0.377,15.114 	c0,2.686,0.297,4.351,1.491,5.999l0.259-0.271c0.308-0.464,0.051,0.086,0.278-0.48l0.547-3.807 	c0.369-5.251-0.079-12.174,0.365-16.39c3.412-0.466,4.717,7.252,4.717,10.632c0,3.561-0.609,6.931-1.721,10.102 	c-0.9,2.565-2.839,6.308-5.181,6.767c-1.553-2.748-2.186-2.698-3.73-7.07C155.343,288.931,154.482,285.24,154.482,282.237 	L154.482,282.237z M156.53,221.463l1.138,28.174c-2.281-0.691-3.661-3.528-4.763-5.592c-1.134-2.126-2.202-5.129-2.453-7.877 	c-0.299-3.268,0.284-6.247,1.4-8.906C152.883,224.806,153.56,221.843,156.53,221.463L156.53,221.463z M163.044,250.267l0.784-29.794 	c3.587,0.878,7.295,8.363,7.295,13.3v0.48C171.123,241.005,167.297,248.303,163.044,250.267L163.044,250.267z M154.797,159.202 	c-0.16,9.682,2.14,27.534,1.177,35.042c-2.716-1.597-8.546-12.788-9.756-17.208C144.228,169.773,149.636,160.605,154.797,159.202 	L154.797,159.202z M164.445,194.68c-0.883-9.448-0.252-18.168,0.206-27.597c0.127-2.625,0.041-6.77,0.412-9.215 	c2.905,0.208,11.827,8.287,10.258,18.34c-0.623,3.988-2.494,7.621-4.27,10.412C169.841,188.522,165.96,193.898,164.445,194.68 	L164.445,194.68z M141.246,126.05c1.23-5.293,0.93-9.017,11.214-4.888c1.97,0.791,1.489,0.852,1.477,3.205l0.181,14.247 	c-7.501-0.964-20.298-5.09-21.057-11.424C135.066,127.018,139.799,126.691,141.246,126.05L141.246,126.05z M177.214,120.232 	c2.4,0,2.891-1.522,4.553-2.37c-0.471,1.27-3.302,4.595-2.743,5.639c2.403,4.481,5.276,3.579,9.029,3.133 	c-1.33,7.801-15.997,11.909-22.958,12.85c0-4.075-0.05-8.171,0.072-12.24C165.439,118.225,167.786,120.232,177.214,120.232 	L177.214,120.232z M215.504,72.786c0.963-2.465,3.803-4.846,4.404-7.947c0.876-4.518-4.741-4.038-8.049-4.149 	c-8.131-0.272-16.136-0.212-24.274-0.465c-2.501-0.078-9.732-0.443-11.596,0.303c-1.769,0.709-4.793,4.521-5.796,6.481 	c-3.225,6.304,3.444,8.954,3.718,18.733c-1.393,1.448-5.272,3.714-7.927,4.168c0.493-3.705,3.591-7.042,2.141-10.96 	c-2.51-6.781-13.415-7.718-16.603-0.28c-1.688,3.938,1.154,7.498,1.753,10.941c-1.485-0.201-7.302-2.508-7.538-4.12 	c-0.686-4.698,6.127-12.428,3.916-18.154c-1.081-2.798-2.997-4.855-5.407-6.145c-2.926-1.566-7.079-1.147-10.69-1.12 	c-3.787,0.028-7.668,0.041-11.358,0.116c-4.025,0.081-19.396-0.002-21.776,1.533c-0.76,1.975-0.426,4.316,0.442,6.148 	c0.767,1.618,2.447,3.377,2.746,4.439c-1.09,1.734-3.732,3.796-3.417,6.722c0.269,2.495,2.962,5.086,4.268,5.89 	c-0.662,3.987-1.387,7.125,1.15,9.907c2.402,2.634,5.879,2.051,9.855,1.61c0.117,3.995,0.852,3.936,2.973,5.783 	c2.216,1.931,1.54,3.225,3.134,5.518c1.353,1.946,2.193,1.307,4.203,4.463c2.188,3.436,1.789,1.746,5.504,3.159l-2.411,1.708 	c-1.113,0.706-1.436,0.942-2.411,1.924c-5.321,5.361-3.369,13.578,0.819,18.099c7.869,8.494,14.24,7.895,19.335,10.523 	c1.412,0.729,2.358,1.576,2.358,1.576c0.024-0.044,0.096,0.088,0.141,0.133c-1.576,2.758-5.738,4.154-10.847,12.128 	c-3.466,5.411-4.035,11.647-2.381,18.658c2.002,8.485,7.46,13.848,12.053,19.452c0.992,1.211,6.038,6.675,5.962,8.063 	c-0.116,2.099-23.138,21.922-9.876,42.849c4.911,7.749,8.229,8.017,9.665,10.653c-2.495,7.102-8.439,12.675-6.512,22.699 	c1.429,7.428,5.649,16.099,13.39,16.177c10.585,0.107,17.018-17.189,11.774-28.987c-1.342-3.02-3.915-6.922-4.737-9.889 	c0.825-1.141,3.949-3.595,5.465-5.324c1.76-2.007,3.002-3.57,4.561-6.256c7.769-13.386,1.081-28.534-8.008-38.928 	c-2.829-3.236-2.598-2.807-0.27-6.258c5.377-7.971,14.587-14.03,16.477-26.537c2.104-13.921-4.473-18.613-11.241-25.888 	c-0.892-0.96-2.11-1.544-2.529-2.941c2.17-1.335,3.319-1.779,6.181-2.73c2.194-0.729,4.358-1.383,6.404-2.271 	c8.615-3.738,15.398-12.244,12.711-20.941c-2.157-6.985-7.74-6.537-9.844-7.439c0.453-0.68-0.493-0.089,0.722-0.681 	c1.683-0.821,2.358,1.181,4.942-2.758c3.23-4.923,2.152-1.198,4.369-4.531c1.93-2.901-0.758-1.868,3.298-5.596 	c3.52-3.235,1.055-2.167,2.889-5.702c3.516,0.706,7.253,1.169,9.533-1.366c2.399-2.667,1.654-6.234,1.291-10.029 	c1.277-0.72,3.861-3.351,4.14-5.703C219.083,75.984,216.518,74.651,215.504,72.786L215.504,72.786z"/> <g> 	<path fill-rule="evenodd" clip-rule="evenodd" fill="#FFCC00" d="M470.607,182.973c-2.04-14.542,19.691-17.158,21.181-2.752 		C493.229,194.155,472.449,196.104,470.607,182.973L470.607,182.973z M477.63,156.474c-8.227,3.567-19.684,5.195-20.861,22.473 		c-0.532,7.816,2.413,11.469,4.976,16.479c3.047,5.957-0.803,9.696-3.707,15.506c-7.31,14.625-30.826,63.029-23.715,81.789 		c1.888,4.98,6.82,9.072,13.978,6.472c18.666-6.781,36.335-71.472,36.335-94.532c17.934-3.314,30.714-25.656,11.812-43 		c14.671-14.813,43.724-92.502,23.783-100.782C495.519,50.618,477.78,133.153,477.63,156.474L477.63,156.474z"/> 	<circle fill-rule="evenodd" clip-rule="evenodd" fill="#FFCC00" cx="481.166" cy="181.236" r="6.133"/> </g> </svg> 