<svg version="1.1" xmlns="http://www.w3.org/2000/svg" viewBox="0 0 640 360" enable-background="new 0 0 640 360">
	<rect fill="#3949AB" width="640" height="360" />
	<path fill-rule="evenodd" clip-rule="evenodd" fill="#FFFFFF" d="M264.805,194.062c0-3.734,0.876-5.273,6.68-5.273h7.031v-10.195c8.41-1.959,28.073-5.273,37.266-5.273h8.438c8.87,0,29.586,3.484,37.266,5.273v10.547c1.41,0,3.185,0.095,4.552-0.018c4.826-0.4,9.159-1.592,9.159,4.94c0,5.06-4.234,6.134-7.65,6.764c-3.784,0.698-2.714,0.303-5.96,8.454l-4.369,10.045c-3.053,7.541-8.378,16.101-13.304,22.556c-2.704,3.543-7.716,8.451-11.375,10.422c-1.991,1.072-2.443,1.434-4.743,2.288c-7.424,2.757-13.613,1.33-20.331-2.288c-2.841-1.53-5.717-4.27-7.943-6.471c-8.578-8.481-16.608-25.256-21.106-36.551c-0.714-1.792-1.343-3.327-2.007-5.024c-1.182-3.018-0.574-2.806-3.953-3.43C268.979,200.185,264.805,199.167,264.805,194.062L264.805,194.062z M319.292,90h1.403c2.497,0.327,5.312,2.394,11.721,6.217l61.698,37.794c3.467,2.084,14.368,8.916,15.887,11.184l-4.87,5.326c-0.785,0.626-0.955,0.663-1.728,1.436c-1.283,1.284-2.259,1.901-3.508,3.171l-7.012,5.995c-1.902,1.601-8.792,7.694-10.656,8.68c0-7.633,0.667-13.424-1.869-18.874c-3.533-7.592-12.514-9.857-19.842-11.447c-2.562-0.556-5.838-1.07-8.865-1.33l-19.697-1.045c-11.46,0.023-27.064,0.812-38.411,3.074c-9.742,1.942-23.841,6.613-25.925,15.559c1.194-0.319,1.627-0.921,2.698-1.521c2.68-1.5,5.143-2.404,8.045-3.557c3.367-1.338,8.632-2.498,12.661-3.159c8.973-1.474,18.725-2.31,28.979-2.31c14.365,0,43.3,2.271,53.013,11.323c2.154,2.008,2.551,4.286,2.535,8.363c-0.013,3.515-0.001,7.033-0.001,10.548c5.905,1.376,10.225,5.171,12.366,10.485c1.346,3.341,1.345,5.33,1.345,8.851c0,8.838-8.442,18.136-14.414,18.633c-0.138,1.653-3.261,8.142-4.103,9.959c-2.909,6.272-5.808,12.455-9.539,18.234c-5.877,9.103-10.794,15.392-19.754,21.731c-4.689,3.316-12.712,6.677-20.745,6.677c-20.564,0-32.225-13.667-42.33-29.037c-1.164-1.771-2.247-3.654-3.257-5.532c-0.6-1.115-0.953-2.027-1.537-3.033c-1.809-3.111-5.459-11.224-6.867-14.578c-0.485-1.156-0.775-2.246-1.296-3.274c-1.045-2.062-5.776-2.111-10.01-7.568c-3.775-4.865-3.63-7.273-4.311-8.345v11.601c1.665,0.445,2.407,1.984,3.316,3.364c1.829,2.777,1.606,4.48,1.606,7.535c0,3.687-2.738,6.221-3.516,7.383c4.508,6.732,1.982,12.29-2.091,19.354c-1.098,1.904-1.997,3.483-3.182,5.255c-1.364,2.041-2.273,4.145-3.867,4.57l-6.313-10.211c-7.927-13.661-2.426-16.876-1.773-19.32c-1.221-1.823-3.164-3.972-3.164-7.031c0-4.317,0.83-8.734,4.922-10.898c0-9.727,0-19.453,0-29.18c0-9.148-0.855-20.893,2.109-27.07c-1.941-1.3-7.636-6.542-9.141-8.789c1.709-2.551,12.396-8.926,16.103-11.319c12.59-8.128,26.618-16.206,39.16-24.121l22.543-13.668C314.055,92.36,316.821,90.327,319.292,90L319.292,90z M251.094,188.789v-24.258l6.788,5.516c1.426,1.2,5.594,4.276,6.571,5.734c-4.706,0.105-10.402,5.124-12.413,10.439c-0.158,0.419-0.288,0.847-0.446,1.312c-0.037,0.108-0.14,0.426-0.178,0.525L251.094,188.789L251.094,188.789z" />
</svg>
