<?xml version="1.0" encoding="utf-8"?>
<!-- Generator: Adobe Illustrator 19.0.0, SVG Export Plug-In . SVG Version: 6.00 Build 0)  -->
<svg version="1.1" id="Layer_1" xmlns="http://www.w3.org/2000/svg" xmlns:xlink="http://www.w3.org/1999/xlink" x="0px" y="0px"
	 viewBox="0 0 640 360" enable-background="new 0 0 640 360" xml:space="preserve">
<rect id="XMLID_1_" fill="#D81B60" width="640" height="360"/>
<g>
	<path fill-rule="evenodd" clip-rule="evenodd" fill="#FFFFFF" d="M316.262,217.067l2.481,3.912
		c6.612,9.965,13.74,18.473,26.983,18.473h7.1c3.107,0,5.201-0.711,7.81-0.711c-1.344,2.008-8.109,6.02-10.53,7.227
		c-7.841,3.908-15.807,5.805-23.894,0.58C317.866,241.158,314.661,223.944,316.262,217.067L316.262,217.067z M354.601,208.895
		c4.707-1.098,9.39-1.609,14.06,0.14c2.483,0.93,3.584,1.636,5.42,3.102c3.556,2.84,4.979,5.81,7.144,9.905
		c-2.287,0.051-4.11,0.711-8.52,0.711C363.106,222.752,358.243,215.785,354.601,208.895L354.601,208.895z M319.812,191.484
		c1.63-0.783,6.299-0.711,8.52-0.711c9.623,0,16.96,10.296,17.039,13.858c-3.106,0-12.735,2.738-19.089-3.634
		c-2.788-2.796-3.579-3.471-5.521-6.913c-0.258-0.458-0.535-0.936-0.749-1.43c-0.109-0.252-0.133-0.143-0.227-0.646
		c-0.008-0.04-0.01-0.151-0.013-0.185C319.765,191.756,319.86,191.592,319.812,191.484L319.812,191.484z M301.352,225.24
		c0,5.544,0.976,12.475,2.196,16.989c1.328,4.912,3.295,9.376,5.724,13.458c2.44,4.102,5.252,7.363,8.91,10.27
		c7.865,6.251,21.777,4.169,30.876,0.994c6.913-2.412,17.775-8.906,23.206-14.437c2.603-2.65,1.598-1.184,4.615-4.619
		c3.081-3.508,5.169-4.999,8.86-9.964c4.699-6.319,7.406-10.047,11.527-16.888c4.011-6.658,6.651-12.596,9.888-18.173
		c3.023-5.207,4.659-7.577-0.419-11.338l-18.206-13.401c-1.67-1.217-3.196-2.146-4.891-3.277c-1.679-1.121-2.998-1.958-4.787-3.026
		c-16.893-10.085-27.649-12.194-46.032-17.528c-8.633-2.505-9.443-2.858-12.699,5.158l-7.513,16.642
		c-3.806,9.047-6.458,17.976-8.701,27.534C302.432,209.927,301.352,218.785,301.352,225.24L301.352,225.24z"/>
	<path fill-rule="evenodd" clip-rule="evenodd" fill="#FFFFFF" d="M260.174,158.438c-1.224,0-1.374-0.263-2.485-0.355
		c0.11-4.937,4.357-12.885,9.878-15.696c0.862-0.439,2.831-1.185,3.88-1.446c2.916-0.726,6.22-0.624,10.026-0.624
		c-0.429,0.895-0.986,4.458-2.275,7.317c-0.694,1.538-2.934,4.955-4.054,5.891C271.23,156.797,267.238,158.438,260.174,158.438
		L260.174,158.438z M309.872,140.672c-5.752,0-8.042-0.886-12.639-4.05c-1.337-0.92-1.754-1.042-2.626-2.346
		c2.092-3.128,8.94-6.626,13.939-7.016c2.524-0.197,6.709,1.184,8.432,2.036c3.749,1.852,3.457,2.309,6.383,4.27
		C321.443,136.434,314.368,140.672,309.872,140.672L309.872,140.672z M230,123.261c0,1.745,1.576,5.185,2.181,6.7
		c2.837,7.106,5.604,15.665,9.064,22.551c4.012,7.982,6.196,13.199,11.398,20.926c0.669,0.994,1.124,1.503,1.784,2.478l7.958,10.156
		c0.844,0.854,1.461,1.449,2.314,2.303c6.281,6.287,7.399,7.409,15.198,12.147c2.48,1.507,9.875,5.099,13.29,5.175
		c0.061-2.742,2.73-12.968,3.679-15.86l4.841-14.698c-2.834,0.661-5.008,1.26-7.307,2.635c-6.923,4.14-10.864,8.365-16.122,14.42
		c0-2.654,1.49-7.868,2.254-10.181c2.875-8.711,9.853-17.179,20.466-17.179c1.558,0,3.982,0.236,4.97,0.711
		c3.382-6.397,6.481-16.607,11.146-20.112c5.673-4.261,12.282-3.694,18.318-0.497c0-12.182-5.371-32.35-9.275-44.015
		c-0.693-2.072-1.313-4.745-2.075-6.807c-0.465-1.258-1.378-3.097-2.673-3.72c-2.543-1.225-12.152,0.758-15.462,1.223
		c-15.84,2.226-28.644,3.844-43.05,10.563c-4.071,1.899-6.116,2.744-10.11,5.16l-19.355,11.54
		C232.031,119.737,230,121.249,230,123.261L230,123.261z"/>
</g>
</svg>
