<?xml version="1.0" encoding="utf-8"?>
<!-- Generator: Adobe Illustrator 19.0.0, SVG Export Plug-In . SVG Version: 6.00 Build 0)  -->
<svg version="1.1" id="Layer_1" xmlns="http://www.w3.org/2000/svg" xmlns:xlink="http://www.w3.org/1999/xlink" x="0px" y="0px"
	 viewBox="0 0 640 360" enable-background="new 0 0 640 360" xml:space="preserve">
<rect id="XMLID_1_" fill="#E53935" width="640" height="360"/>
<g>
	<path fill-rule="evenodd" clip-rule="evenodd" fill="#FFFFFF" d="M250.825,249.177L250.825,249.177L250.825,249.177z
		 M250.825,249.177c0.104-1.255,2.299-5.957,2.942-7.294l3.059-7.53c5.741,2.754,12.018-0.556,13.98-5.08
		c2.602-5.998-0.807-12.884-5.509-13.979L282.945,174c1.627,1.089,3.43,3.256,6.488,4.454c8.856,3.471,18.441-0.383,22.343-8.802
		c5.688-12.273-3.666-24.946-16.124-24.946c0.803-1.673,1.432-3.36,2.238-5.174c0.847-1.905,1.556-3.635,2.34-5.424l4.598-10.931
		c4.796,2.301,10.162,4.725,14.813,7.423c6.086,3.531,13.374,8.707,18.765,13.001c0.811,0.646,1.543,1.197,2.334,1.902
		c0.893,0.796,1.635,1.271,2.48,2.108c0.808,0.8,1.435,1.559,2.303,2.285c3.254,2.72,5.996,6.03,8.811,9.19
		c6.898,7.742,11.316,15.355,16.567,24.023c1.041,1.719,5.555,10.452,5.932,12.068c-5.225,2.507-17.992,7.283-22.237,9.529
		c0.324-3.896,1.049-3.644,0.087-7.852c-0.651-2.847-2.107-4.186-3.264-5.913c6.058-4.056,4.797-15.701-4.216-18.02
		c-3.862-0.993-8.308,0.503-10.623,3.536c-1.213,1.589-1.798,2.582-2.274,5.147c-0.62,3.342,0.667,3.996,0.876,6.514
		c-2.067,0.481-4.524,3.012-5.59,4.646c-3.371,5.168-3.125,12.246,1.071,16.814l1.389,1.435c0.565,0.513,0.767,0.712,1.38,1.091
		l1.75,1.073c-2.245,0.523-19.44,8.607-21.884,9.176c1.105-4.744-2.446-9.828-5.233-12.061c-10.728-8.596-27.019,2.78-21.455,16.512
		c0.615,1.518,2.544,4.664,4.098,5.079c-0.835,1.139-18.56,8.309-19.757,8.833c-3.263,1.431-6.587,2.79-9.883,4.235
		C259.328,245.715,252.351,249.05,250.825,249.177L250.825,249.177z M230,263.294c0,3.843,3.035,6.706,7.412,6.706
		c2.038,0,22.988-9.358,27.277-11.196c23.222-9.951,47.115-20.594,70.294-30.3c3.782-1.583,7.235-3.201,10.841-4.689
		c17.489-7.218,37.441-17.014,54.879-22.773c11.923-3.937,10.589-4.094,5.883-15.849c-1.302-3.252-2.455-6.028-3.863-9.196
		c-0.755-1.7-1.191-2.734-2.006-4.347c-3.968-7.858-6.214-13.561-11.598-21.58c-5.557-8.278-6.407-9.523-12.531-16.764
		c-0.706-0.835-0.781-1.104-1.599-1.931c-14.84-14.997-31.289-26.472-50.648-34.767C319.729,94.632,309.009,90,303.771,90
		c-1.524,0-2.415,3.031-2.979,4.434c-1.908,4.746-4.086,12.749-6.199,17.096l-7.009,16.285
		c-6.581,15.944-14.138,32.61-20.973,48.558c-9.017,21.04-19.187,43.681-27.837,64.636C237.266,244.662,230,259.58,230,263.294
		L230,263.294z"/>
</g>
</svg>
