<svg version="1.1" xmlns="http://www.w3.org/2000/svg" viewBox="0 0 640 360" enable-background="new 0 0 640 360"> <rect fill="#0097A7" width="640" height="360"/> <g> 	<path fill-rule="evenodd" clip-rule="evenodd" fill="#FFFFFF" d="M298.031,163.209l-0.057,31.624 		c0.201,1.701,0.057,4.208,0.05,5.993c-0.025,6.177,2.8,26.185,3.922,32.988c1.122,6.821,2.589,13.767,4.342,20.149 		c1.288,4.699,2.758,9.15,5.143,13.319c0.784,1.374,1.812,2.565,3.676,2.718c0.519-0.49,0.725-0.703,1.083-1.404 		c1.596-3.114,0.779-13.947,0.394-17.45l-1.122-26.559c0.296-5.454,2.833-23.858,2.847-24.479c1.688,0.807,3.793,1.439,5.643,2.179 		c3.137,1.257,14.852,5.283,15.703,8.464c-0.861,1.171-3.46,2.892-4.768,3.76c-3.934,2.614-15.509,8.509-15.509,11.14 		c0,4.885,18.744-1.329,20.77-1.993c4.361-1.429,20.854-9.167,20.854-12.552c0-5.164-11.9-14.458-15.919-18.186 		c-1.216-1.124-7.663-6.652-8.983-7.006c0-6.405,0.211-13.163,0.01-19.525c-0.218-6.947-1.502-1.743,6.444-12.353 		c5.235-6.991,13.467-17.575,13.467-27.016c0-16.632-27.81-40.07-31.511-36.379c-1.542,1.537,4.158,7.712,5.19,9.058 		c1.147,1.5,2.197,2.808,3.401,4.411c3.798,5.068,10.468,13.547,10.468,21.137c0,4.716-5.436,12.556-8.271,15.522 		c-2.661,2.783-3.024,5.055-9.515,5.055c-5.273,0-13.265,0.282-18.134-0.366c-3.53-0.47-4.419-1.906-8.037-6.528 		c-9.927-12.68-8.542-13.794,0.789-30.834c1.817-3.32,9.016-14.371,9.016-17.262c0-4.533-14.132,10.776-15.904,12.876l-11.6,15.75 		c-0.583,0.971-0.948,1.411-1.42,2.486c-2.036,4.622-1.84,7.212-0.295,12.22c2.197,7.127,11.215,21.149,16.508,26.467 		C297.457,161.387,298.031,161.816,298.031,163.209L298.031,163.209z"/> 	<path fill-rule="evenodd" clip-rule="evenodd" fill="#FFFFFF" d="M305.503,123.83 		c0,6.934,5.908,12.772,11.384,12.772c4.183,0,7.97-0.547,10.736-3.84c8.05-9.591,0.976-21.132-9.051-21.515 		C311.785,110.989,305.503,116.9,305.503,123.83L305.503,123.83z"/> </g> </svg> 