<?xml version="1.0" encoding="utf-8"?>
<!-- Generator: Adobe Illustrator 19.0.0, SVG Export Plug-In . SVG Version: 6.00 Build 0)  -->
<svg version="1.1" id="Layer_1" xmlns="http://www.w3.org/2000/svg" xmlns:xlink="http://www.w3.org/1999/xlink" x="0px" y="0px"
	 viewBox="0 0 640 360" enable-background="new 0 0 640 360" xml:space="preserve">
<rect id="XMLID_1_" fill="#6D4C41" width="640" height="360"/>
<g>
	<path id="XMLID_2_" fill-rule="evenodd" clip-rule="evenodd" fill="#FFFFFF" d="M261.442,152.644
		c-3.442,6.459-5.723,13.184-6.097,20.994c-0.078,1.63-0.387,2.237-0.376,4.277c0.011,2.047,0.343,2.449,0.39,4.256
		c0.354,13.527,3.452,26.971,5.993,39.603c0.555,2.756,1.041,4.892,1.663,7.602c1.561,6.796,7.224,30.609,9.632,35.991
		c0.632,1.412,0.784,1.795,1.778,2.861c3.463,3.716,5.862,1.047,7.149-3.066c0.804-2.57,0.775-5.259,1.037-8.58
		c0.442-5.601,1.049-12.287,1.044-18.182c-0.004-4.663,1.774-20.703,3.188-25.306c0.864-2.811,2.085-5.645,4.71-5.645
		c5.626,0,6.997,7.929,7.502,12.482c1.066,9.611,2.758,26.728,4.273,35.617c0.528,3.1,0.874,5.428,1.691,8.286
		c0.454,1.588,0.608,2.418,1.29,3.701c1.474,2.775,3.379,2.974,5.124,0.579c2.938-4.032,4.963-18.435,5.831-23.394
		c0.924-5.277,2.986-23.747,9.776-23.747c9.677,0,6.034,19.516,6.095,26.337c0.04,4.52-2.449,22.42,4.3,22.42
		c4.356,0,7.871-11.062,9.04-15.226c0.848-3.02,1.664-6.312,2.504-9.614l7.028-29.323c0.845-3.379,1.586-6.398,2.308-9.808
		c2.691-12.698,1.805-9.238,6.954-10.89c4.57-1.467,7.782-3.586,11.447-6.43c1.839-1.427,4.154-4.414,5.378-6.405
		c2.929-4.764,5.505-12.225,5.535-17.993c0.013-2.397,0.337-3.267,0.371-5.342l-1.564-21.964c-0.192-1.443-0.609-3.675-0.609-5.445
		c-1.755,0.465-5.535,5.318-7.796,7.563c-1.463,1.452-7.215,6.6-7.617,8.096c-3.097,0-8.419-1.779-12.904-1.779
		c-4.581,0-8.477,1.277-12.188,2.135c-0.243-0.902-2.003-3.526-2.651-4.486c-1.061-1.573-1.783-2.776-2.795-4.343
		c-1.892-2.93-3.758-5.78-5.667-8.61c-3.375,2.244-6.607,11.332-7.569,15.974c-2.574,12.421-1.8,26.014,4.987,36.058
		c7.133,10.557,13.849,11.471,16.204,13.095c-8.577,0-20.226-4.955-26.436-11.121c-9.752-9.682-11.804-25.731-9.148-39.512
		c0.486-2.521,1.364-7.328,2.248-9.156c-8.265-4.342-20.888-5.309-29.862-1.532l-6.396,3.615c-1.057,0.842-0.802,0.796-2.097,1.476
		c-6.692-4.449-5.309-25.126,10.15-32.274c5.938-2.746,14.895-2.57,21.083-0.515c3.119,1.036,5.654,2.605,8.051,4.462
		c2.781,2.154,4.751,5.193,8.391,5.193c3.082,0,3.585-3.2,3.585-5.694c0-4.401-6.336-10.005-9.585-12.904
		c-0.828-0.739-0.853-0.775-1.807-1.409c-12.619-8.374-31.254-6.627-44.051,0.194c-3.404,1.815-5.576,3.624-8.416,5.88
		c-4.954,3.936-9.245,11.756-10.68,18.224C250.551,130.335,252.723,146.847,261.442,152.644L261.442,152.644z"/>
</g>
</svg>
