<svg version="1.1" xmlns="http://www.w3.org/2000/svg" viewBox="0 0 640 360" enable-background="new 0 0 640 360">
	<rect fill="#5E35B1" width="640" height="360" />
	<path fill-rule="evenodd" clip-rule="evenodd" fill="#FFFFFF" d="M229,173.957c0,3.622,5.434,19.199,6.405,23.479c1.057,4.658,0.037,8.915,5.037,9.942c5.502,1.13,7.472-3.264,7.472-8.182c0-5.2-4.996-19.125-4.996-25.594c0-0.611,5.577-9.786,6.78-10.664l0.002,22.397c0.015,2.942-0.372,4.445-0.36,7.461l0.013,11.032c-0.053,1.755-0.328,1.777-0.38,3.531c-0.151,5.022-0.003,10.307-0.605,14.683l-0.909,14.024c-0.583,4.383-0.846,9.183-1.433,13.858c-0.808,6.43-3.171,14.855,0.357,18.691c3.238,3.521,8.687,3.066,11.743-0.952c2.436-3.202,4.043-19.359,4.829-23.983c0.912-5.368,1.62-11.444,2.339-16.866l1.474-13.106c0.149-1.436-0.093-2.845,0.774-4.205c0,16.308,0.257,30.979-1.892,47.17c-0.462,3.48-1.62,9.277,0.949,12.421c1.445,1.768,3.349,1.905,5.225,1.905c8.063,0,8.43-10.99,9.308-18.81c1.004-8.944,2.749-22.977,2.814-32.033c0.016-2.242,0.378-3.998,0.368-6.742c-0.01-2.795,0.366-4.336,0.369-6.741c0.003-2.371-0.004-4.751-0.013-7.123c-0.01-2.701,0.367-4.025,0.37-6.385c0.006-4.282-0.535-19.16,0.345-20.985c0.879,0.641,2.378,3.521,3.096,4.737c1.101,1.865,2.066,2.933,3.676,4.159c3.365,2.561,15.89,10.009,19.78,11.579c9.421,3.803,15.532-3.798,5.142-10.81l-15.564-10.09c-3.501-2.302-2.317-1.981-4.945-7.871l-3.841-8.615c-0.659-1.59-1.343-2.775-2.112-4.294c-1.447-2.86-2.269-6.084-4.597-8.218c-6.605-6.051-19.088-4.739-27.398-4.344c-13.386,0.635-15.436,3.628-21.415,15.637C234.776,158.927,229,169.203,229,173.957L229,173.957z" />
	<path fill-rule="evenodd" clip-rule="evenodd" fill="#FFFFFF" d="M322.855,181.777c0.71,0.965,1.826,1.326,2.718,2.624c1.946,2.832,1.148,6.31,0.494,9.106c2.586-1.725,9.367-5.056,13.049-7.263c7.824-4.69,9.42-4.342,13.731-11.561c2.617-4.382,2.125-3.935,2.125,8.161l1.069,39.458c0.553,10.705,2.118,26.507,3.77,36.768c1.336,8.299,2.147,11.93,9.792,11.93c4.105,0,5.353-4.071,5.353-7.82c0-2.406-0.25-3.97-0.56-6.197c-0.313-2.249-0.396-4.136-0.717-6.395c-1.421-9.996-1.221-30.518-1.221-41.084l2.206,16.997c0.673,5.467,1.45,11.617,2.328,16.876c0.75,4.495,2.543,21.058,4.73,24.081c1.595,2.205,3.874,3.447,6.205,3.541h0.568c1.662-0.067,3.324-0.721,4.761-2.032c3.931-3.587,1.623-12.451,0.763-18.735c-0.319-2.33-0.516-4.737-0.763-6.705c-0.301-2.401-0.261-4.472-0.61-6.858l-1.62-28.601c-0.003-2.449-0.373-4.22-0.369-7.097c0.003-2.607-0.005-5.214,0.001-7.821c0.007-2.916-0.376-4.491-0.366-7.101l0.008-23.114c1.032,0.753,6.78,9.695,6.78,11.02c0,9.279-8.643,25.617-3.13,31.91c1.216,1.387,3.466,1.893,5.31,1.568c5.243-0.925,4.292-5.091,5.268-9.707c0.841-3.973,6.469-20.436,6.469-23.415c0-4.481-3.22-10.325-4.877-13.626c-1.103-2.197-1.996-3.961-3.092-6.162c-2.52-5.061-5.377-11.031-9.791-13.708c-0.812-0.492-2.319-1.086-3.278-1.356c-5.371-1.509-24.386-2.312-30.873,0.206c-2.291,0.89-5.221,2.741-6.47,4.575L342.021,167.1c-1.508,3.591-0.085,2.485-5.392,6.004L322.855,181.777L322.855,181.777z" />
	<path fill-rule="evenodd" clip-rule="evenodd" fill="#FFFFFF" d="M354.973,109.617c0,7.979,4.285,15.425,11.295,18.964c21.262,10.736,41.686-15.482,25.378-33.1c-3.946-4.263-9.539-6.424-15.17-6.482h-0.388c-5.569,0.039-11.138,2.135-15.15,6.297C358.183,98.155,354.973,104.176,354.973,109.617L354.973,109.617z" />
	<path fill-rule="evenodd" clip-rule="evenodd" fill="#FFFFFF" d="M242.561,109.973c0,11.689,10.255,20.973,19.271,20.973c5.117,0,6.73,0.222,11.663-2.246c15.031-7.52,15.585-29.494-0.232-37.578c-2.375-1.214-4.891-1.901-7.42-2.122h-3.65C251.976,89.889,242.561,98.103,242.561,109.973L242.561,109.973z" />
</svg>
