<svg version="1.1" xmlns="http://www.w3.org/2000/svg" viewBox="0 0 640 360" enable-background="new 0 0 640 360"><rect fill="#388E3C" width="640" height="360"/><g><path fill-rule="evenodd" clip-rule="evenodd" fill="#FFFFFF" d="M275.743,115.014L275.743,115.014L275.743,115.014z M275.743,115.014c-2.629-1.394-4.681-3.544-9.487-3.537c-7.597,0.01-13.362,2.918-16.306,9.763c-1.016,2.36-1.632,5.218-1.372,7.917c0.138,1.43,0.336,2.013,0.43,3.117c-0.832,0.401-2.167,0.516-3.311,0.912c-9.539,3.292-14.44,14.101-8.893,24.34c3.036,5.609,10.817,9.414,17.479,7.858c-3.017,4.513-5.979,6.425-5.979,15.148c-8.343,0.184-16.47,10.974-13.78,20.137c2.01,6.85,6.335,11.171,13.097,12.602c2.325,0.491,5.778,0.597,7.717-0.335c0.076,3.348,2.32,7.084,3.966,9.065c5.616,6.752,19.276,8.637,26.639-2.372c3.993,1.92,10.636,0.882,14.646-0.477c6.08-2.062,7.84-5.601,10.329-7.273l2.471,21.125c0.688,8.054,2.364,13.467-1.426,20.079c-5.938,10.36-23.721,7.996-28.915,12.26c-1.436,1.18-1.038,2.876-0.625,4.658h81.962c0-7.199-13.507-3.159-21.818-9.503c-7.695-5.874-4.696-19.736-5.24-30.33c-0.194-3.802-5.938-2.74-11.291-16.168c-2.823-7.086-2.455-19.196-2.455-29.244c3.552-0.829,8.949-5.882,10.906-8.804c1.028,0.238,1.628,0.614,2.462,1.057c-0.42,1.573-5.468,5.449-5.991,14.799c-0.699,12.574,12.337,26.056,28.156,21.487c1.283-0.372,2.557-0.915,3.748-1.534c1.978-1.03,1.536-0.936,4.339-0.936c1.939,3.672,3.608,5.624,7.091,7.691c14.534,8.625,31.593-8.834,22.531-23.264c-1.622-2.583-2.541-3.561-4.998-5.21c0-0.99,0.093-1.861,0.268-2.549c0.407-1.603,0.113-1.072,1.662-1.507c15.513-4.37,16.551-25.633,1.596-31.529c-0.79-0.313-1.201-0.455-2.131-0.684c-1.392-0.346-1.544-0.128-2.035-1.133c-0.813-1.669-0.378-6.093-7.096-10.859c-2.541-1.802-5.147-2.814-9.502-2.814c0.299-1.126,0.834-1.327,1.487-2.387c7.967-12.911-5.908-30.512-21.185-23.682c-3.086,1.381-2.707,1.683-4.926,3.171c-0.815-3.51-3.586-7.099-6.254-8.883c-3.849-2.571-5.812-3.092-12.037-3.092c-0.469-5.656-7.317-12.179-14.15-13.656c-8.809-1.905-15.969,2.738-19.266,7.669c-1.556-0.131-2.28-0.561-4.205-0.752c-5.469-0.543-10.834,1.723-14.202,5.918C277.245,106.516,275.743,110.26,275.743,115.014L275.743,115.014z"/></g></svg>