<svg version="1.1" xmlns="http://www.w3.org/2000/svg" viewBox="0 0 640 360" enable-background="new 0 0 640 360">
	<rect fill="#D84315" width="640" height="360" />
	<path fill-rule="evenodd" clip-rule="evenodd" fill="#FFFFFF" d="M363.079,228.941c-4.711,0-8.762-3.914-8.762-8.065v-1.833c0-4.393,3.991-8.065,9.492-8.065c7.236,0,11.131,9.907,5.766,15.322C368.154,227.735,365.854,228.941,363.079,228.941L363.079,228.941z M255.381,198.513h14.238v-14.664h14.238v13.564c0,0.845,0.254,1.1,1.095,1.1h13.508v13.931h-13.508c-0.841,0-1.095,0.255-1.095,1.1v13.564h-14.238v-14.664h-14.238V198.513L255.381,198.513z M368.556,205.845c0-12.076,17.889-12.637,17.889,0.367c0,2.223-1.594,4.861-2.816,5.97c-1.421,1.29-3.935,2.38-6.268,2.322C372.476,214.381,368.556,210.41,368.556,205.845L368.556,205.845z M339.714,205.479c0-3.999,3.623-8.798,8.032-8.798h1.826c10.757,0,10.972,18.192-1.057,17.828c-2.356-0.071-4.586-1.176-6.04-2.637C341.132,210.523,339.714,207.952,339.714,205.479L339.714,205.479z M363.809,199.98c-13.387,0-11.776-17.963-0.73-17.963c4.963,0,8.659,3.977,9.045,8.522C372.516,195.152,368.48,199.98,363.809,199.98L363.809,199.98z M228,235.906c0,8.78,2.928,16.172,6.454,22.114c2.68,4.517,8.727,11.979,15.451,11.979c5.1,0,7.578-0.514,12.17-3.177l7.437-5.73c4.836-4.061,8.713-9.473,16.486-15.706c4.721-3.786,7.039-4.82,12.339-7.405c5.615-2.739,15.269-4.3,21.663-4.3c12.229,0,24.201,4.02,33.798,11.544c7.843,6.149,11.674,11.656,16.69,15.868l3.381,2.837c0.799,0.603,1.117,0.828,1.915,1.376c0.79,0.543,1.229,0.957,1.911,1.38c4.32,2.68,7.38,3.313,12.4,3.313c6.724,0,12.771-7.462,15.451-11.979c3.526-5.942,6.454-13.335,6.454-22.114c0-10.538-1.725-19.77-3.941-27.937c-1.011-3.728-4.474-13.817-6.525-17.643c-2.218-4.137-4.745-8.951-7.479-12.653c-4.111-5.568-9.831-12.652-15.706-16.489c-0.9-0.587-1.638-0.96-2.492-1.531c-10.053-6.727-21.794-4.53-30.391,3.211c-3.147,2.834-9.543,8.823-13.053,10.721c-1.892,1.023-3.263,1.879-5.542,2.5c-24.471,6.674-28.284-20.465-50.682-20.465c-13.894,0-28.556,17.949-34.8,29.21C234.109,197.965,228,215.645,228,235.906L228,235.906z" />
	<path fill-rule="evenodd" clip-rule="evenodd" fill="#FFFFFF" d="M313.064,154.155c0,2.405,0.007,4.032,2.262,6.161c3.323,3.137,8.954,2.448,11.27-2.104c1.102-2.166,1.078-5.506,2.019-8.238c0.801-2.325,2.362-4.831,3.883-6.366c15.473-15.612,31.863-5.617,52.383-14.487c2.767-1.196,4.047-1.842,6.579-3.658c1.186-0.85,1.701-1.444,2.808-2.313c1.179-0.924,1.686-1.31,2.611-2.51c3.995-5.182,7.168-9.194,8.764-17.228c1.08-5.438,1.449-8.436-1.926-11.692c-1.066-1.028-2.414-1.584-3.814-1.719h-1.379c-2.171,0.205-4.286,1.369-5.505,3.302c-2.365,3.75-0.11,21.488-22.009,24.824c-10.239,1.56-19.762-0.342-32.911,4.711c-7.206,2.769-14.422,7.303-18.763,13.786C316.155,141.374,313.064,147.378,313.064,154.155L313.064,154.155z" />
</svg>
