<svg version="1.1" xmlns="http://www.w3.org/2000/svg" xmlns:xlink="http://www.w3.org/1999/xlink" x="0px" y="0px" viewBox="0 0 640 360" enable-background="new 0 0 640 360" xml:space="preserve"><rect fill="#7360F2" width="640" height="360"/><path fill="#FFFFFF" d="M389.7,107.6c-4.7-4.1-23.8-17.2-66.2-17.4c0,0-50.1-2.9-74.5,18.4c-13.6,12.9-18.4,31.7-18.9,55.1s-1.2,67.2,43.4,79.1h0l0,18.1c0,0-0.3,7.3,4.8,8.8c6.2,1.8,9.8-3.8,15.7-9.8c3.2-3.3,7.7-8.1,11.1-11.9c30.5,2.4,53.9-3.1,56.5-3.9c6.1-1.9,40.9-6.1,46.6-49.9C414,149,405.3,120.4,389.7,107.6z M394.8,190.9c-4.8,36.6-33,38.9-38.2,40.5c-2.2,0.7-22.8,5.5-48.7,3.9c0,0-19.3,22.1-25.3,27.8c-0.9,0.9-2,1.3-2.8,1.1c-1-0.2-1.3-1.4-1.3-3.1c0-2.4,0.2-30.1,0.2-30.1s0,0,0,0c-37.7-9.9-35.5-47.2-35-66.7c0.4-19.5,4.3-35.5,15.8-46.3c20.6-17.7,63.2-15.1,63.2-15.1c35.9,0.1,53.1,10.4,57.1,13.8C393,127.4,399.8,153.2,394.8,190.9L394.8,190.9z"/><path fill="#FFFFFF" d="M340.9,164.9c-1.3,0-2.3-1-2.4-2.2c-0.4-7.7-4.2-11.5-12.1-11.9c-1.3-0.1-2.3-1.2-2.2-2.5c0.1-1.2,1.2-2.1,2.5-2.1c10.3,0.5,16.1,6.1,16.6,16.2c0.1,1.3-1,2.3-2.3,2.4c0,0,0,0,0,0H340.9z"/><path fill="#FFFFFF" d="M353.2,168.8L353.2,168.8c-1.4,0-2.4-1.1-2.4-2.3c0.2-7.8-2.2-14.1-7.2-19.3c-5-5.2-11.8-8-20.9-8.6c-1.3-0.1-2.3-1.2-2.2-2.4s1.2-2.2,2.6-2.1c10.2,0.7,18.3,4.1,24.1,10.1s8.6,13.6,8.4,22.4C355.6,167.8,354.6,168.8,353.2,168.8z"/><path fill="#FFFFFF" d="M365.9,173.5c-1.3,0-2.4-1-2.4-2.3c-0.1-13.9-4.3-24.6-12.9-32.5c-8.5-7.8-19.2-11.9-31.9-11.9c-1.3,0-2.4-1-2.4-2.3s1.1-2.3,2.4-2.3h0c13.9,0.1,25.8,4.5,35.2,13.2c9.4,8.7,14.2,20.7,14.4,35.7C368.3,172.4,367.2,173.5,365.9,173.5L365.9,173.5z"/><path fill="#FFFFFF" d="M327.1,193.1c0,0,3.4,0.3,5.2-1.9l3.5-4.2c1.7-2.1,5.8-3.4,9.9-1.3c3,1.6,6,3.4,8.8,5.3c2.7,1.9,8.2,6.2,8.2,6.2c2.6,2.1,3.2,5.2,1.4,8.4c0,0,0,0.1,0,0.1c-2,3.2-4.4,6.1-7.4,8.6c0,0,0,0-0.1,0c-2.5,2-5,3.2-7.5,3.4c-0.4,0.1-0.7,0.1-1.1,0.1c-1.1,0-2.2-0.1-3.2-0.5l-0.1-0.1c-3.8-1-10.1-3.5-20.6-9c-6.1-3.1-11.9-6.8-17.3-10.8c-2.7-2-5.3-4.2-7.8-6.5l-0.3-0.2l-0.3-0.2l0,0l-0.3-0.2c-0.1-0.1-0.2-0.2-0.3-0.2c-2.4-2.3-4.7-4.8-6.9-7.4c-4.3-5.2-8.1-10.6-11.4-16.4c-5.8-10-8.5-15.9-9.5-19.5l-0.1-0.1c-0.3-1-0.5-2-0.5-3c0-0.3,0-0.7,0.1-1c0.3-2.3,1.5-4.7,3.6-7.1c0,0,0,0,0.1-0.1c2.6-2.8,5.7-5.1,9.1-7c0,0,0.1,0,0.1,0c3.4-1.7,6.7-1.1,8.9,1.4c0,0,4.6,5.2,6.6,7.8c2,2.7,3.9,5.5,5.6,8.4c2.3,3.8,0.8,7.7-1.4,9.4l-4.5,3.4c-2.3,1.7-2,4.9-2,4.9S302.4,187.1,327.1,193.1z"/></svg>
