<svg version="1.1" xmlns="http://www.w3.org/2000/svg" xmlns:xlink="http://www.w3.org/1999/xlink" x="0px" y="0px" viewBox="0 0 640 360" enable-background="new 0 0 640 360" xml:space="preserve"><rect fill="#25D366" width="640" height="360"/><path fill-rule="evenodd" clip-rule="evenodd" fill="#FFFFFF" d="M383.8,116.2C366.9,99.3,344.4,90,320.4,90c-49.4,0-89.6,40-89.6,89.2c0,15.7,4.1,31.1,12,44.6L230,270l47.5-12.4c13.1,7.1,27.8,10.9,42.8,10.9h0c0,0,0,0,0,0c49.4,0,89.6-40,89.6-89.2C410,155.4,400.7,133,383.8,116.2z M320.4,253.4L320.4,253.4c-13.4,0-26.5-3.6-37.9-10.3l-2.7-1.6l-28.2,7.4l7.5-27.4l-1.8-2.8c-7.5-11.8-11.4-25.4-11.4-39.5c0-40.9,33.4-74.1,74.5-74.1c19.9,0,38.6,7.7,52.7,21.7c14.1,14,21.8,32.6,21.8,52.4C394.9,220.1,361.4,253.4,320.4,253.4z M361.2,197.9c-2.2-1.1-13.2-6.5-15.3-7.3c-2.1-0.7-3.5-1.1-5,1.1c-1.5,2.2-5.8,7.3-7.1,8.7c-1.3,1.5-2.6,1.7-4.9,0.6c-2.2-1.1-9.5-3.5-18-11.1c-6.7-5.9-11.2-13.2-12.5-15.4c-1.3-2.2-0.1-3.4,1-4.5c1-1,2.2-2.6,3.4-3.9c1.1-1.3,1.5-2.2,2.2-3.7c0.7-1.5,0.4-2.8-0.2-3.9c-0.6-1.1-5-12.1-6.9-16.5c-1.8-4.3-3.7-3.8-5-3.8c-1.3-0.1-2.8-0.1-4.3-0.1c-1.5,0-3.9,0.6-6,2.8c-2.1,2.2-7.8,7.6-7.8,18.6c0,11,8,21.6,9.1,23.1c1.1,1.5,15.8,24,38.3,33.7c5.3,2.3,9.5,3.7,12.8,4.7c5.4,1.7,10.2,1.5,14.1,0.9c4.3-0.6,13.2-5.4,15.1-10.6c1.9-5.2,1.9-9.7,1.3-10.6C365,199.5,363.5,199,361.2,197.9z"/></svg>
