<svg version="1.1" xmlns="http://www.w3.org/2000/svg" xmlns:xlink="http://www.w3.org/1999/xlink" x="0px" y="0px" viewBox="0 0 640 360" enable-background="new 0 0 640 360" xml:space="preserve"><rect fill="#0088CC" width="640" height="360"/><path id="Path-3" fill="#FFFFFF" d="M227.7,167.8c57.4-24.8,95.8-41.2,114.9-49.1c54.7-22.6,66.1-26.5,73.5-26.6c1.6,0,5.3,0.4,7.6,2.3c2,1.6,2.5,3.8,2.8,5.3c0.3,1.5,0.6,5,0.3,7.7c-3,30.9-15.8,106-22.3,140.6c-2.8,14.7-8.2,19.6-13.5,20c-11.4,1-20.1-7.5-31.2-14.7c-17.3-11.3-27.1-18.3-44-29.3c-19.5-12.7-6.8-19.7,4.2-31.1c2.9-3,53.3-48.5,54.3-52.6c0.1-0.5,0.2-2.4-0.9-3.5c-1.2-1-2.9-0.7-4.1-0.4c-1.7,0.4-29.4,18.6-83.1,54.5c-7.9,5.4-15,8-21.4,7.8c-7-0.2-20.6-3.9-30.6-7.2c-12.3-4-22.1-6.1-21.3-12.8C213.5,175,218.4,171.4,227.7,167.8z"/></svg>
