<svg version="1.1" xmlns="http://www.w3.org/2000/svg" x="0px" y="0px" viewBox="0 0 136 64" enable-background="new 0 0 136 64">
	<path fill="#03A9F4" d="M21,12C10,12,1,21,1,32s9,20,20,20s20-9,20-20S32,12,21,12z"></path>
	<circle fill="#FFFFFF" cx="21" cy="32" r="1.039"></circle>
	<path fill="#FFFFFF" d="M26.253,22.161c1.186-4.136,1.141-7.777-0.099-8.132c-1.241-0.356-3.208,2.708-4.394,6.844c-0.825,2.877-1.054,5.515-0.7,6.973c-1.83-0.027-3.525,1.165-4.054,3.009c-0.529,1.844,0.276,3.753,1.843,4.7c-1.074,1.049-2.277,3.407-3.102,6.285c-1.186,4.136-1.141,7.777,0.099,8.132c1.241,0.356,3.208-2.708,4.394-6.844c0.825-2.877,1.054-5.515,0.7-6.973c1.83,0.027,3.525-1.165,4.054-3.009c0.529-1.844-0.276-3.753-1.843-4.7C24.224,27.396,25.428,25.038,26.253,22.161z M22.997,32.573c-0.316,1.103-1.467,1.741-2.569,1.424c-1.103-0.316-1.741-1.467-1.424-2.569c0.316-1.103,1.467-1.741,2.569-1.424C22.675,30.319,23.313,31.47,22.997,32.573z"></path>
	<path fill="currentColor" d="M53.69,29.831c-0.563,0-1.025-0.091-1.389-0.272v-1.96c0.188,0.117,0.402,0.215,0.646,0.294s0.474,0.119,0.69,0.119c0.457,0,0.853-0.149,1.187-0.448s0.694-0.858,1.081-1.679l-4.087-8.877h2.391l2.813,6.671h0.035l2.698-6.671h2.215l-4.017,9.035c-0.645,1.436-1.283,2.426-1.916,2.971S54.622,29.831,53.69,29.831z"></path>
	<path fill="currentColor" d="M68.359,29.233c-0.691,0.398-1.544,0.598-2.558,0.598c-0.867,0-1.64-0.188-2.315-0.563c-0.678-0.375-1.205-0.908-1.582-1.6c-0.379-0.691-0.567-1.465-0.567-2.32c0-0.979,0.194-1.843,0.585-2.593c0.389-0.75,0.954-1.332,1.695-1.745s1.602-0.62,2.58-0.62c0.381,0,0.776,0.042,1.187,0.127s0.735,0.195,0.976,0.33v1.925c-0.662-0.48-1.354-0.721-2.074-0.721c-0.844,0-1.528,0.283-2.053,0.848s-0.786,1.32-0.786,2.263c0,0.938,0.252,1.673,0.756,2.206s1.187,0.8,2.048,0.8c0.311,0,0.659-0.067,1.046-0.202s0.741-0.319,1.063-0.554V29.233z"></path>
	<path fill="currentColor" d="M75.786,29.611v-7.365h-2.057c-0.193,1.957-0.438,3.457-0.734,4.5s-0.683,1.799-1.16,2.268s-1.105,0.703-1.885,0.703c-0.422,0-0.727-0.035-0.914-0.105v-1.477c0.141,0.047,0.313,0.07,0.519,0.07c0.445,0,0.818-0.249,1.12-0.747s0.562-1.277,0.778-2.338s0.419-2.563,0.606-4.509h5.757v9H75.786z"></path>
	<path fill="currentColor" d="M80.831,33.839c-0.504,0-0.92-0.047-1.248-0.141v-1.732c0.322,0.146,0.653,0.22,0.993,0.22c0.721,0,1.248-0.384,1.582-1.151l0.615-1.424l-3.604-9h2.285l2.312,6.952h0.035l2.391-6.952h2.065l-3.902,10.081c-0.41,1.09-0.908,1.887-1.494,2.391C82.275,33.587,81.599,33.839,80.831,33.839z"></path>
	<path fill="currentColor" d="M91.65,22.246v7.365h-2.03v-9h5.256v1.635H91.65z"></path>
	<path fill="currentColor" d="M102.883,29.611V23.3l-4.658,6.311h-1.731v-9h1.925v6.135l4.518-6.135h1.854v9H102.883z"></path>
	<path fill="currentColor" d="M60.607,41.948c0,0.826-0.267,1.477-0.8,1.951s-1.269,0.712-2.206,0.712h-4.702v-9h4.43c0.967,0,1.7,0.183,2.202,0.549c0.5,0.366,0.751,0.91,0.751,1.631c0,0.527-0.166,0.977-0.497,1.349s-0.754,0.611-1.27,0.717c0.645,0.076,1.154,0.303,1.529,0.681S60.607,41.386,60.607,41.948z M58.173,38.081c0-0.352-0.111-0.612-0.334-0.782s-0.609-0.255-1.16-0.255H54.93v2.259h1.644c0.51,0,0.903-0.102,1.183-0.304C58.033,38.797,58.173,38.491,58.173,38.081z M58.48,41.948c0-0.832-0.577-1.248-1.731-1.248H54.93v2.443h1.951c0.533,0,0.933-0.094,1.199-0.281S58.48,42.37,58.48,41.948z"></path>
	<path fill="currentColor" d="M71.611,33.81v10.802h-2.109V33.81H65.89v-1.802h9.343v1.802H71.611z"></path>
	<path fill="currentColor" d="M75.751,48.839c-0.504,0-0.92-0.047-1.248-0.141v-1.731c0.322,0.146,0.653,0.22,0.993,0.22c0.721,0,1.248-0.384,1.582-1.151l0.615-1.424l-3.604-9h2.285l2.312,6.952h0.035l2.391-6.952h2.065l-3.902,10.081c-0.41,1.09-0.908,1.887-1.494,2.391S76.519,48.839,75.751,48.839z"></path>
	<path fill="currentColor" d="M84.54,44.611v-9h2.03v7.365h3.067v-7.365h2.03v7.365h3.067v-7.365h2.03v9H84.54z"></path>
	<path fill="currentColor" d="M105.845,44.611v-6.311l-4.658,6.311h-1.731v-9h1.925v6.135l4.518-6.135h1.854v9H105.845z"></path>
	<path fill="currentColor" d="M116.462,44.611v-3.876h-3.99v3.876h-2.03v-9h2.03v3.489h3.99v-3.489h2.03v9H116.462z"></path>
	<path fill="currentColor" d="M129.769,40.023c0,1.459-0.422,2.625-1.266,3.498s-1.989,1.31-3.437,1.31c-1.389,0-2.495-0.415-3.317-1.244c-0.824-0.829-1.235-1.952-1.235-3.37c0-1.494,0.422-2.672,1.266-3.533s2.013-1.292,3.507-1.292c1.406,0,2.505,0.411,3.296,1.234S129.769,38.582,129.769,40.023z M127.659,40.094c0-0.996-0.222-1.752-0.664-2.268s-1.05-0.773-1.823-0.773c-0.797,0-1.421,0.27-1.872,0.809s-0.677,1.301-0.677,2.285c0,0.955,0.226,1.697,0.677,2.228s1.081,0.796,1.89,0.796c0.814,0,1.43-0.261,1.846-0.782S127.659,41.102,127.659,40.094z"></path>
</svg>
